<svg width="199" height="148" viewBox="0 0 199 148" fill="none" xmlns="http://www.w3.org/2000/svg">
<path fill-rule="evenodd" clip-rule="evenodd" d="M29.8149 130.443C31.416 131.309 33.2694 129.65 34.1755 128.464C35.3835 126.879 36.9288 124.262 36.5895 122.172C36.3765 120.858 35.3339 119.917 34.2665 119.222C32.8123 118.273 31.0974 117.818 29.3287 117.6V127.977C29.3287 128.542 29.4446 129.917 29.8149 130.446V130.443Z" fill="black"/>
<path fill-rule="evenodd" clip-rule="evenodd" d="M29.5397 103.995C31.5773 103.403 33.6459 102.295 33.9272 100.11C34.0638 99.0469 33.6583 97.0592 32.8536 96.0931C32.08 96.8023 31.1615 98.3604 30.8409 98.9935C30.1169 100.42 29.7363 102.18 29.5397 103.995Z" fill="black"/>
<path fill-rule="evenodd" clip-rule="evenodd" d="M93.5879 34.9814C96.6908 31.7501 97.9361 24.9935 97.9361 21.127C97.9361 19.3942 97.843 16.5554 97.0528 14.9871C96.9142 14.7137 96.8066 14.4547 96.6474 14.2224C96.0268 14.6171 95.4476 15.6058 95.1476 16.2019C94.2023 18.0807 93.5879 20.9646 93.5879 23.0839V34.9814Z" fill="black"/>
<path fill-rule="evenodd" clip-rule="evenodd" d="M30.6464 61.8558V73.0586C30.6464 73.9301 30.8036 75.9754 31.2939 76.7215C31.3332 76.7832 31.4242 76.9148 31.4883 76.9662C31.8628 77.1491 33.4018 77.1409 33.8114 77.1409C35.1043 77.1409 37.4894 73.7081 38.0913 72.7235C39.3677 70.6371 40.4847 67.7614 38.8547 65.5558C37.2515 63.3851 33.7473 62.2833 30.6464 61.8578V61.8558Z" fill="black"/>
<path fill-rule="evenodd" clip-rule="evenodd" d="M30.843 48.3384C32.8723 47.8163 34.9884 46.916 35.9855 45.4874C36.1738 45.2181 36.3186 44.9201 36.4261 44.6097C36.633 44.0115 36.7116 43.3619 36.7033 42.7309C36.6888 41.6743 36.1096 39.1357 35.1043 38.3834C34.7299 38.6218 34.2293 39.1583 34.0307 39.3947C31.9559 41.847 31.1532 45.0701 30.843 48.3384Z" fill="black"/>
<path fill-rule="evenodd" clip-rule="evenodd" d="M173.217 77.3465C173.033 77.5376 172.847 77.7206 172.646 77.92C172.878 78.1029 173.217 78.3557 173.455 78.4647C173.912 78.4256 174.057 78.2057 173.701 77.8069C173.562 77.6527 173.399 77.4986 173.215 77.3465H173.217Z" fill="black"/>
<path fill-rule="evenodd" clip-rule="evenodd" d="M97.3673 67.2187C96.8729 69.2476 96.3475 71.4881 96.0765 73.5231C96.7177 71.6012 97.1294 69.4511 97.3673 67.2187Z" fill="black"/>
<path fill-rule="evenodd" clip-rule="evenodd" d="M155.58 66.0244C155.661 65.9772 155.741 65.9299 155.824 65.8806C155.805 65.8538 155.787 65.8292 155.766 65.8024C155.704 65.8764 155.642 65.9504 155.58 66.0224V66.0244Z" fill="black"/>
<path fill-rule="evenodd" clip-rule="evenodd" d="M56.9032 49.4032C56.0696 50.7496 55.0332 51.985 53.8789 53.0929C54.3299 53.3643 54.7663 53.6438 55.1801 53.9275C55.8565 54.3941 56.4957 54.8772 57.1039 55.3869C57.0811 53.3931 57.0149 51.3951 56.9032 49.4012V49.4032Z" fill="black"/>
<path fill-rule="evenodd" clip-rule="evenodd" d="M111.163 41.4934C111.09 41.5674 111.018 41.6435 110.946 41.7154L110.879 41.7792H111.353C111.339 41.7566 111.322 41.7339 111.308 41.7113C111.258 41.6373 111.21 41.5654 111.163 41.4914V41.4934Z" fill="black"/>
<path fill-rule="evenodd" clip-rule="evenodd" d="M121.891 90.4013C122.015 90.2574 122.141 90.1217 122.269 89.9902C123.403 88.8288 124.317 88.023 125.465 87.2912C125.051 87.0117 124.652 86.7177 124.274 86.4114C123.839 86.0599 123.461 85.7413 123.109 85.4248C122.981 86.3539 122.598 87.2296 121.969 88.0189C121.632 88.4403 121.256 88.7979 120.844 89.0919C121.227 89.5236 121.576 89.9532 121.893 90.4013H121.891Z" fill="black"/>
<path fill-rule="evenodd" clip-rule="evenodd" d="M53.1177 106.157C52.4661 107.164 51.7565 107.966 50.8546 108.893C51.2994 109.179 51.7276 109.477 52.1351 109.781C52.404 109.98 52.6709 110.19 52.9356 110.404C53.0515 109.205 53.1239 108.003 53.1239 106.798C53.1239 106.585 53.1239 106.373 53.1177 106.159V106.157Z" fill="black"/>
<path fill-rule="evenodd" clip-rule="evenodd" d="M51.3284 86.8534C50.6623 87.1638 49.9838 87.4474 49.2949 87.7064C49.7893 88.0662 50.261 88.4465 50.7078 88.8535C50.7802 88.1361 50.987 87.468 51.3304 86.8534H51.3284Z" fill="black"/>
<path fill-rule="evenodd" clip-rule="evenodd" d="M156.829 86.0373C156.161 85.507 155.534 84.9356 154.957 84.323C154.302 85.0794 153.594 85.7742 152.841 86.4073C153.491 86.8143 154.082 87.2563 154.612 87.7373C155.158 87.2254 155.741 86.7609 156.347 86.3477C156.503 86.2429 156.666 86.1381 156.831 86.0373H156.829Z" fill="black"/>
<path fill-rule="evenodd" clip-rule="evenodd" d="M173.358 145.714C172.741 145.951 172.073 146.072 171.365 146.072H156.697C153.708 146.072 151.269 143.65 151.269 140.68C151.269 139.062 151.989 136.456 152.32 134.814C152.872 132.076 153.346 129.297 153.578 126.513C153.586 126.4 153.596 126.287 153.604 126.172C147.417 131.132 137.533 132.078 130.337 129.917C128.719 129.43 127.112 128.797 125.598 127.999C124.619 128.873 123.392 129.334 122.013 129.334H107.344C106.31 129.334 105.348 129.064 104.525 128.571C99.4566 131.134 93.0459 131.153 88.315 127.821C82.1919 123.51 80.655 115.65 82.796 108.815C83.2242 107.452 83.8179 106.151 84.5481 104.934C81.9272 105.649 79.1304 105.75 76.8198 105.039C76.5674 104.961 76.3212 104.877 76.0771 104.782C75.0387 109.697 74.8815 114.515 75.4545 119.576C75.62 121.035 76.1661 122.343 76.1992 123.862C76.2323 125.366 75.7131 126.676 74.654 127.753C73.5948 128.83 72.2895 129.375 70.7753 129.375H58.8808C58.2851 131.007 57.3894 132.559 56.1006 134.154C50.2465 141.398 40.8632 143.435 31.9372 143.435H10.9801C8.91982 143.435 7.01876 142.483 5.93068 140.703C4.89017 139.001 4.96877 137.529 5.4218 135.767L6.20994 131.607C6.68779 128.678 6.96912 125.751 7.29389 122.803L7.4842 119.794C7.5173 117.602 7.64969 115.415 7.64969 113.224C7.64969 106.309 7.0229 98.8229 5.67417 92.0396C5.26665 89.9943 4.69779 88.3498 5.60177 86.5081C5.27286 85.6242 5.19839 84.6663 5.38663 83.6714L6.56574 77.4348C7.40559 72.4542 7.99515 66.2444 7.9786 61.2042C7.97239 60.051 8.10685 58.9163 8.11306 57.7735L7.9848 52.3673C7.9848 52.3262 7.9848 52.2892 7.98274 52.2481V52.2255C7.91447 51.65 7.84414 51.1628 7.84 50.5687C7.81104 47.7773 7.43456 44.7104 7.0891 41.9375C6.75191 39.218 6.37129 36.2497 5.73623 33.5837C5.55419 32.8252 5.37836 32.1345 5.31216 31.3431C5.18184 29.785 5.66176 28.3954 6.72916 27.2443C7.79449 26.0932 9.14736 25.5033 10.7216 25.5033H24.4137C31.087 25.5033 38.7367 25.012 45.1722 26.8702C48.7695 27.9083 52.0565 29.5548 54.5181 31.9063C54.4892 31.7234 54.4643 31.5384 54.4478 31.3431C54.3175 29.785 54.7974 28.3954 55.8627 27.2443C56.9281 26.0932 58.283 25.5033 59.8551 25.5033H74.867C74.8629 25.1395 74.8587 24.7859 74.8587 24.4467L74.3292 15.6531C74.1678 13.8359 73.841 11.8688 73.479 10.0825C73.0053 7.74122 72.5688 5.9385 74.4947 3.79661C75.5869 2.58383 77.128 1.92811 78.7539 1.92811H94.9408C98.1885 1.92811 101.353 2.46872 104.343 3.75139C105.669 4.32078 106.856 5.07517 108.039 5.89122C109.173 6.67439 110.209 7.67545 111.146 8.68267C112.069 9.67139 112.931 10.9397 113.635 12.0949C114.344 13.2624 114.946 14.5204 115.439 15.8339C116.475 15.0097 117.607 14.2964 118.819 13.7229C123.173 11.6591 128.68 11.3035 133.295 12.9891C133.266 12.765 133.235 12.5409 133.204 12.3169L132.476 8.27361C132.182 6.64767 132.587 5.13067 133.655 3.86239C134.722 2.59411 136.154 1.93017 137.817 1.93017H148.427C150.106 1.93017 151.552 2.6085 152.62 3.89939C153.687 5.18822 154.076 6.72989 153.751 8.36817L153.064 11.8256C153.052 11.8955 153.042 11.9654 153.031 12.0353C153.544 11.8277 154.306 11.4885 154.674 11.1617C154.819 11.0322 154.976 10.9068 155.121 10.7773C155.325 10.545 155.605 10.2284 155.754 9.98178C156.033 9.33017 156.229 8.70117 156.55 8.03517C157.475 6.11939 159.305 4.9765 161.444 4.9765H162.648C164.33 4.9765 165.778 5.65689 166.846 6.94984C167.913 8.24278 168.3 9.7865 167.971 11.4268L167.601 13.2645C168.323 13.6242 168.951 14.1381 169.446 14.7651C169.86 14.5061 170.282 14.2635 170.706 14.0353C178.239 9.9715 189.015 11.3693 193.133 19.5504C195.254 23.7602 194.571 26.6791 194.081 30.9875C193.735 34.0112 193.785 35.3186 194.815 38.1963C194.89 38.3998 194.96 38.6157 195.051 38.811C195.179 39.0823 195.299 39.366 195.436 39.6332C195.866 40.3814 196.166 40.9981 196.369 41.8655C196.758 43.5223 196.4 45.1092 195.334 46.4412C194.792 47.1216 194.143 47.6375 193.411 47.9808C195.742 52.3756 194.455 57.8454 190.535 61.1055C190.91 61.42 191.265 61.7407 191.599 62.0757C197.101 67.5435 197.914 76.1851 193.489 82.5511C193.382 82.7053 193.284 82.8307 193.162 82.9725L191.499 84.9232C191.346 85.1021 191.203 85.248 191.03 85.4083C190.854 85.5687 190.674 85.7249 190.49 85.8791C191.81 86.0579 192.953 86.691 193.845 87.7435C194.912 89.0015 195.324 90.5102 195.045 92.13L194.023 98.0541C193.686 100.003 193.502 102.149 193.301 104.12C193.117 105.91 192.85 107.999 192.85 109.789C192.846 111.999 192.691 114.201 192.68 116.408C192.674 117.5 192.865 118.579 192.858 119.707C192.84 122.83 193.117 125.833 193.378 128.939C193.64 132.08 194.195 135.508 194.956 138.567C195.945 142.54 193.597 146.072 189.35 146.072H175.556C174.752 146.072 174.017 145.947 173.36 145.714H173.358Z" fill="black"/>
<path fill-rule="evenodd" clip-rule="evenodd" d="M137.281 97.5464C137.291 96.1116 137.837 94.6357 138.847 93.3675H138.669C137.848 93.5853 136.267 95.5833 136.259 96.3973C136.259 96.5248 136.276 96.6317 136.338 96.7447C136.485 97.0099 136.826 97.2812 137.283 97.5443L137.281 97.5464ZM135.577 116.754C134.567 117.738 135.01 119.202 135.953 120.069C136.776 120.826 137.763 121.212 138.855 120.824C139.71 120.519 140.483 119.761 140.713 118.877C140.918 118.094 140.624 117.43 140.082 116.856C139.451 116.188 138.928 115.691 138.125 115.234C137.767 115.031 137.403 114.832 137.037 114.64C136.77 115.631 136.358 116.133 135.579 116.756L135.577 116.754ZM105.714 105.633C105.311 105.721 104.616 106.27 104.386 106.474C102.365 108.256 101.151 112.295 101.151 114.914C101.151 115.469 101.382 117.243 101.916 117.596C101.922 117.596 101.926 117.596 101.931 117.596C101.958 117.596 101.98 117.592 102.005 117.584C103.097 117.249 104.27 113.861 104.56 112.893C105.168 110.858 105.578 108.665 105.832 106.556C105.859 106.342 105.846 105.869 105.714 105.631V105.633ZM105.265 97.8609C106.335 98.0541 107.394 98.3666 108.441 98.8003C108.488 98.0911 108.472 97.2504 108.472 96.866C108.472 96.2391 108.333 95.5792 108.122 94.9913C107.946 94.5042 107.396 93.3798 106.767 92.9584C106.734 93.2133 106.709 93.4723 106.688 93.6244C106.612 94.2328 106.523 94.8372 106.349 95.4271C106.093 96.3048 105.727 97.1209 105.265 97.8629V97.8609ZM26.6168 114.725V127.975C26.6168 129.35 26.954 131.854 28.2675 132.668C31.236 134.505 34.4734 132.534 36.3372 130.092C39.7462 125.625 41.1446 120.482 35.7559 116.965C33.0067 115.171 29.8128 114.799 26.6168 114.723V114.725ZM26.6333 107.323C27.1526 107.245 27.6614 107.156 28.1269 107.076C32.0489 106.393 36.3041 104.572 36.6557 100.104C36.7695 98.6441 36.4385 97.1086 35.7973 95.793C35.4042 94.9831 34.6513 93.8361 33.8197 93.4065C33.4163 93.1989 33.0191 93.092 32.5702 93.1948C30.8657 93.5812 29.1508 96.3398 28.4185 97.7787C27.0057 100.556 26.6995 104.05 26.6333 107.325V107.323ZM155.683 38.2786C155.505 38.5458 155.321 38.8562 155.311 39.0042C155.328 39.1645 155.607 39.5592 155.696 39.6804C155.795 39.8141 156.01 39.9703 156.209 40.0011C156.182 39.0453 155.998 38.6486 155.681 38.2786H155.683ZM124.309 27.8713C124.714 27.343 125.053 26.7798 125.316 26.2721C125.887 25.16 126.328 23.8814 126.51 22.6419C126.52 22.5782 126.53 22.5001 126.539 22.4097C126.233 22.8023 125.972 23.1969 125.844 23.4518C125.089 24.9565 124.605 26.3933 124.309 27.8713ZM124.998 37.7441C125.211 38.1491 125.455 38.5273 125.728 38.8603C125.844 39.0001 126.03 39.1686 126.243 39.3207C126.067 38.924 125.831 38.5478 125.567 38.1943C125.535 38.1552 125.507 38.1121 125.476 38.0689C125.302 37.9764 125.142 37.8695 124.996 37.7441H124.998ZM91.9889 38.9754C92.5826 38.9754 93.1473 38.6794 93.6417 38.3813C98.687 35.3514 100.65 26.5824 100.65 21.127C100.65 18.8803 100.505 15.8175 99.4793 13.7804C99.0801 12.9891 98.8525 12.4998 98.1885 11.9099C97.5059 11.3035 96.3309 11.3549 95.5531 11.7434C94.2706 12.3827 93.3438 13.7537 92.7191 14.9953C91.5855 17.2502 90.8718 20.5473 90.8718 23.0839V36.2374C90.8718 36.8541 91.1077 38.9754 91.9868 38.9754H91.9889ZM27.9324 58.9451V73.0586C27.9324 74.5591 28.1744 76.9107 29.0226 78.1975C30.1727 79.9447 31.8938 79.8357 33.8093 79.8357C36.5171 79.8357 39.1629 76.1604 40.4082 74.1192C42.3072 71.0112 43.389 67.1406 41.0391 63.9586C38.352 60.3182 32.3034 59.0027 27.9304 58.9451H27.9324ZM27.9572 51.5739C28.0607 51.5616 28.162 51.5513 28.2634 51.541C31.6207 51.1813 36.182 49.9377 38.2155 47.0249C38.5464 46.5522 38.8029 46.0342 38.9933 45.4894C39.3035 44.5953 39.4318 43.6374 39.4173 42.6939C39.3946 41.0433 38.9333 39.2858 38.0831 37.8633C37.5535 36.9774 36.664 35.9106 35.6049 35.6598C34.192 35.3227 32.7647 36.7019 31.9538 37.6598C28.6771 41.5346 28.0689 46.6447 27.9572 51.5759V51.5739ZM96.2606 45.7484C96.3102 45.8307 96.3578 45.917 96.4012 46.0074C97.2328 47.7259 97.2039 50.3241 97.2059 52.2419C97.208 56.0941 96.2151 60.3203 95.338 64.0717C94.8229 66.2793 94.2809 68.487 93.8382 70.7111C93.5031 72.4028 93.1763 74.2652 93.1742 75.9939C93.1742 76.6866 93.3562 79.4452 94.3099 79.7042C94.7381 79.8193 95.4186 79.4061 95.7331 79.1697C96.8439 78.3352 97.661 76.9394 98.172 75.6753C100.876 68.9886 100.65 59.4611 99.6676 52.4023C99.6676 52.3899 99.6655 52.3797 99.6614 52.3694L99.0491 47.508C98.9498 46.7125 99.1732 45.9889 99.7069 45.3887C99.7462 45.3414 99.7896 45.2983 99.831 45.2551C98.687 45.5203 97.4997 45.6827 96.2606 45.7484ZM76.464 44.7515L76.4516 44.9344C76.4888 44.9098 76.5261 44.8851 76.5633 44.8625C76.5447 44.8419 76.524 44.8193 76.5033 44.7988C76.4909 44.7823 76.4764 44.77 76.464 44.7536V44.7515ZM176.831 37.1295C177.447 36.0853 178.407 33.1561 178.597 31.3102C178.546 31.3637 178.502 31.4109 178.469 31.4438C177.786 32.1139 177.265 33.6597 177.056 34.5662C176.945 35.0596 176.765 36.2579 176.831 37.1295ZM180.095 23.6964C180.265 23.7396 180.432 23.7869 180.6 23.8403C180.585 23.5834 180.552 23.3285 180.505 23.0777C180.488 22.9976 180.465 22.8968 180.432 22.7817C180.337 23.0942 180.225 23.3984 180.095 23.6985V23.6964ZM134.77 65.2207C136.259 64.2772 137.587 62.8342 138.406 61.6399C140.212 59.0068 141.317 55.3006 141.317 52.1104C141.317 51.7712 141.244 51.0682 141.087 50.5852C140.874 50.6427 140.709 50.7661 140.417 51.0394C139.799 51.6171 139.494 51.8288 138.971 52.4927C138.026 53.6932 137.333 55.0457 136.704 56.4271C135.483 59.1034 134.968 62.1929 134.77 65.2207ZM135.012 73.2723C135.014 73.2908 135.018 73.3073 135.02 73.3217C135.566 76.0453 137.264 80.4503 140.411 81.0238C140.601 81.0588 141.04 81.1225 141.346 81.1102C141.379 80.5079 141.048 79.4226 140.897 79.0135C140.591 78.1831 140.088 77.1594 139.525 76.4687C139.331 76.2323 139.027 75.9857 138.804 75.7657C138.512 75.4738 138.243 75.1676 138.013 74.8243C137.6 74.2097 137.473 73.4841 137.606 72.8098C136.727 73.0051 135.858 73.1593 135.01 73.2723H135.012ZM172.247 73.5704C172.209 74.0082 172.056 74.4317 171.792 74.8243C171.556 75.1737 171.287 75.4862 170.987 75.7842C170.772 75.998 170.352 76.3413 170.197 76.5921C169.568 77.589 169.907 79.1964 170.809 79.9138C171.442 80.4174 172.449 81.1677 173.298 81.1677C176.185 81.1677 177.712 78.2303 175.732 76.0165C174.876 75.0566 173.587 74.2549 172.251 73.5683L172.247 73.5704ZM174.998 50.5399C174.963 50.5379 174.932 50.5379 174.905 50.5379C174.634 50.5379 174.104 50.5379 173.844 50.653C173.444 50.8298 172.685 51.6438 172.383 51.9521C171.703 52.6489 171.308 53.5369 171.308 54.5133C171.308 54.9018 172.046 55.3726 172.871 55.7796C172.865 55.6706 172.861 55.5596 172.861 55.4486C172.861 53.8617 173.358 52.4619 174.365 51.2327C174.566 50.9881 174.777 50.7619 174.996 50.542L174.998 50.5399ZM154.889 70.2075C156.221 68.4438 158.389 67.3133 160.727 67.1756C160.365 66.8652 160.011 66.5383 159.663 66.1951C157.878 64.4232 156.623 62.4539 155.998 60.2031C155.385 61.753 154.473 63.2001 153.344 64.4705C152.444 65.4818 151.358 66.4376 150.137 67.3236C151.559 67.562 152.897 68.1519 154.004 69.2126C154.337 69.5333 154.63 69.8663 154.887 70.2075H154.889ZM111.61 36.2024C110.881 37.5838 110.019 38.8233 109.028 39.8058L107.932 40.8912C107.905 40.9179 107.884 40.9384 107.857 40.9652C106.134 42.5438 104.303 43.697 102.334 44.4781H117.718C117.867 44.4781 118.012 44.4884 118.153 44.511C117.116 43.9005 116.165 43.1543 115.31 42.3054C114.655 41.6517 114.084 41.0001 113.571 40.2293C112.642 38.8315 112.017 37.5386 111.612 36.2066L111.61 36.2024ZM135.101 43.0413C134.555 43.5428 133.961 43.9971 133.336 44.3938C133.953 44.1965 134.579 44.0238 135.212 43.8799C135.13 43.6107 135.092 43.3311 135.099 43.0413H135.101ZM136.766 29.4767C136.576 29.7357 136.373 29.9864 136.154 30.229C135.856 30.5641 135.541 30.8827 135.212 31.1869C135.713 31.4294 136.185 31.746 136.611 32.1468C136.677 31.2568 136.727 30.3647 136.764 29.4767H136.766ZM164.591 30.7943C164.605 30.7655 164.618 30.7388 164.632 30.71C165.402 29.193 166.184 28.3214 167.361 27.1395C167.586 26.9134 167.828 26.6934 168.083 26.4817C167.762 26.1652 167.481 25.8054 167.247 25.4005C166.821 24.6584 166.604 23.8301 166.604 22.9749C166.604 22.5351 166.661 22.1137 166.769 21.7128C166.359 21.9595 165.894 22.0849 165.381 22.0849C164.868 22.0849 164.312 22.0561 163.749 22.0335C163.73 22.7858 163.716 23.5341 163.71 24.2864C163.697 25.6328 163.66 27.2443 163.834 28.5763C163.923 29.2588 164.03 29.9453 164.096 30.636C164.262 30.6812 164.427 30.7347 164.591 30.7943ZM150.706 44.5542C150.65 44.6364 150.59 44.7186 150.522 44.7988C150.355 45.0002 150.171 45.1708 149.968 45.3127C153.011 46.8605 155.448 49.3189 156.42 52.6695C156.838 51.7178 157.39 50.8174 158.052 49.9726C160.156 47.2881 163.455 45.5367 166.906 44.4781L166.69 44.3322C166.471 44.1842 166.304 44.03 166.134 43.8265L165.255 42.7741C164.891 43.1461 164.518 43.4873 164.148 43.7854C162.065 45.4586 159.506 46.5707 156.807 46.6447C154.589 46.7063 152.357 46.0321 150.704 44.5521L150.706 44.5542ZM149.399 22.2946C149.387 22.6748 149.378 23.0531 149.37 23.4292C149.308 26.3687 149.351 29.3842 149.579 32.3524C149.62 32.1879 149.662 32.0235 149.699 31.8591C150.168 29.8035 150.307 27.6904 150.307 25.5855C150.307 24.7777 150.193 22.9338 149.399 22.2966V22.2946ZM121.605 96.6276C122.04 94.8824 123.113 92.9995 124.216 91.8689C125.689 90.3643 126.636 89.6078 128.554 88.6602C129.613 88.1361 130.645 87.7044 131.723 87.357C129.594 86.6376 127.592 85.6139 125.984 84.3189C124.855 83.4083 124.197 82.7731 123.223 81.7351C117.073 75.2005 116.291 64.3985 120.002 56.4846C121.806 52.6387 123.953 49.9685 127.364 47.4196C128.016 46.9345 128.7 46.4905 129.418 46.0876C126.2 46.9201 122.751 46.5974 119.65 45.2674C119.646 45.2654 119.64 45.2633 119.636 45.2613C119.708 45.3353 119.779 45.4134 119.845 45.4956C120.376 46.1637 120.556 46.9551 120.362 47.7834C119.497 51.4711 118.664 55.0046 118.167 58.7704C117.911 60.7108 117.791 62.7314 117.733 64.6883C117.673 66.6206 117.64 68.8447 117.913 70.7563C118.026 71.556 118.07 72.3617 118.182 73.1613C118.713 76.9209 119.499 80.3681 120.364 84.0537C120.558 84.8821 120.378 85.6756 119.847 86.3416C119.313 87.0076 118.577 87.3611 117.722 87.3611H114.427C115.664 88.0004 116.802 88.8082 117.791 89.799C119.35 91.3612 120.308 92.5267 121.036 94.6768C121.272 95.3757 121.46 96.0191 121.611 96.6255L121.605 96.6276ZM121.951 102.607C121.837 103.678 121.655 104.831 121.454 106.184C121.229 107.697 121.071 109.218 121.059 110.747C122.255 109.273 123.936 108.429 125.775 108.184C125.643 108.061 125.513 107.935 125.382 107.808C123.579 106.015 122.517 104.457 121.951 102.607ZM58.1237 86.7465C57.9893 86.6334 57.8631 86.506 57.7472 86.3642C57.2156 85.7105 57.0253 84.9294 57.2032 84.1051L57.8383 81.1513C58.0782 79.9714 58.2913 78.7771 58.4795 77.5726C56.6199 80.2386 53.9803 82.5038 50.9353 84.0476C47.9007 85.5872 44.5309 86.4896 41.1115 86.9541C42.0962 87.2152 43.0684 87.5317 44.022 87.91C47.8862 89.4455 50.9167 91.9635 52.1103 96.0541C52.7847 98.3666 52.6998 101.076 51.6407 103.259C50.6954 105.207 49.8059 106.12 48.3185 107.615C47.7062 108.231 46.9367 108.842 46.0989 109.409C47.7207 110.118 49.2349 110.988 50.5051 111.935C52.0751 113.109 53.6328 114.591 54.8491 116.289L55.0539 115.249C55.4594 112.445 55.8379 109.637 55.8379 106.798C55.8379 103.168 55.358 99.5053 54.6733 95.9431C54.423 94.6398 54.1396 93.3469 53.85 92.0498C53.6804 91.2893 53.4114 90.2759 53.3949 89.5051C53.3783 88.7507 53.639 88.097 54.1686 87.5605C54.6981 87.022 55.3518 86.7486 56.1089 86.7486H58.1258L58.1237 86.7465ZM75.6448 87.3632H72.5068C72.6433 87.4783 72.7695 87.6078 72.8874 87.7537C73.1749 88.1093 73.3611 88.4978 73.4438 88.9131C74.1306 88.3293 74.867 87.8113 75.6448 87.3652V87.3632ZM81.0522 85.6036C80.8102 85.3796 80.5743 85.1411 80.3489 84.8883C79.2359 83.6447 78.5636 82.2757 78.1085 80.6785C77.8727 79.8481 77.7114 78.9991 77.6204 78.1399C77.217 74.3906 78.1313 70.6042 78.665 66.9083C79.2752 62.6759 79.3166 58.9266 78.1313 54.7682C77.8189 53.6706 77.4693 52.614 77.0143 51.5657L76.1103 49.5944L76.0255 50.7414C76.0213 50.801 76.0172 50.8503 76.0089 50.9099C75.8496 52.059 76.042 53.2985 75.8745 54.5133C75.7483 55.426 75.8 56.6696 75.8165 57.5967C75.8455 59.3418 75.9158 61.0891 75.9986 62.8322C76.1392 65.7922 76.2882 68.8015 76.5385 71.7533C76.6957 73.6259 76.9563 75.5232 77.2418 77.3814C77.5066 79.104 77.7983 80.8738 78.2078 82.5717C78.3733 83.2623 78.5347 83.8852 78.5512 84.6067C78.5657 85.2398 78.3837 85.803 78.0093 86.2881C78.9774 85.951 79.9993 85.7187 81.0584 85.6036H81.0522ZM91.5959 91.0961C93.8072 88.8822 97.1625 87.2974 99.7193 86.4669C99.6924 86.4361 99.6655 86.4032 99.6365 86.3724C99.4917 86.1956 99.3738 86.0127 99.2807 85.8215C98.9953 86.0065 98.7036 86.1792 98.4078 86.3354C95.9958 87.6119 93.1059 88.4649 90.2347 88.5924C90.7601 89.1988 91.1821 89.8977 91.4697 90.6993C91.5152 90.8309 91.5566 90.9604 91.5938 91.094L91.5959 91.0961ZM173.639 98.3234C173.066 99.3203 172.296 100.208 171.386 100.913C169.822 102.12 167.826 103.006 165.731 103.446H171.363C172.149 103.446 172.828 103.742 173.36 104.317C173.893 104.891 174.133 105.588 174.067 106.367C173.999 107.187 173.765 107.933 173.591 108.729C171.225 119.508 170.865 125.541 173.18 136.405C173.577 134.337 173.897 132.195 174.069 130.205C174.315 127.348 174.537 124.493 174.646 121.629C174.754 118.84 174.76 116.048 174.76 113.259C174.76 108.361 174.398 103.277 173.637 98.3234H173.639ZM173.039 89.3838C173.444 88.9439 173.949 88.6643 174.526 88.5636C174.206 88.5718 173.889 88.5739 173.571 88.5718C173.099 88.5677 172.619 88.5533 172.135 88.5246C172.46 88.7836 172.762 89.0693 173.037 89.3838H173.039ZM163.234 86.6067C160.511 85.507 158.048 83.9057 156.263 81.7124C155.71 81.0321 155.249 80.3763 154.872 79.7124C154.62 80.1831 154.341 80.6415 154.041 81.0834C152.268 83.6878 149.852 85.6016 147.099 86.8411C147.924 87.0672 148.727 87.3488 149.496 87.69C151.964 88.7877 153.677 90.1258 154.519 92.165C155.319 90.7158 156.569 89.4681 157.88 88.5718C159.297 87.6057 161.324 86.9109 163.234 86.6067ZM154.179 98.864C153.189 100.55 151.511 101.845 149.577 102.65C149.817 102.794 150.057 102.94 150.293 103.096C150.882 103.479 151.465 103.824 152.005 104.278C152.702 104.862 153.377 105.536 153.981 106.272C153.942 105.598 154.151 104.969 154.599 104.428C155.133 103.785 155.855 103.446 156.693 103.446H160.005C159.324 103.286 158.666 103.057 158.046 102.761C156.016 101.791 154.804 100.521 154.177 98.8661L154.179 98.864ZM173.308 142.561C172.793 143.093 172.125 143.375 171.363 143.375H156.695C155.199 143.375 153.981 142.162 153.981 140.678C153.981 140 154.182 139.157 154.32 138.487C154.539 137.439 154.767 136.39 154.978 135.34C155.551 132.499 156.041 129.619 156.281 126.731C156.37 125.656 156.426 124.575 156.426 123.496C156.426 122.086 156.283 120.579 156.153 119.173C156.128 118.902 156.103 118.626 156.074 118.353C155.764 119.181 155.365 119.909 154.899 120.684C150.481 128.03 138.756 129.625 131.123 127.333C128.897 126.665 126.646 125.673 124.712 124.289C124.652 124.748 124.47 125.185 124.164 125.578C123.634 126.265 122.884 126.633 122.013 126.633H107.344C106.306 126.633 105.414 126.094 104.94 125.185C104.862 125.241 104.781 125.294 104.698 125.35C100.371 128.217 94.2354 128.682 89.8851 125.617C84.7343 121.993 83.6007 115.321 85.388 109.613C86.4781 106.13 88.8632 103.115 91.871 101.01C91.3269 100.622 90.8367 100.151 90.425 99.5896C90.2016 99.2833 90.0092 98.9647 89.85 98.6297C89.5955 98.9195 89.308 99.2196 88.9874 99.5403C86.4119 102.122 81.1329 103.538 77.6224 102.459C76.3895 102.079 75.2518 101.419 74.4078 100.521C74.1513 101.283 73.9548 101.958 73.8576 102.348C72.3764 108.196 72.0786 113.884 72.7571 119.872C72.9081 121.202 73.4583 122.632 73.4873 123.917C73.5038 124.672 73.2453 125.323 72.7136 125.862C72.182 126.4 71.5304 126.674 70.7733 126.674H56.8288C56.4047 128.721 55.5442 130.526 53.9803 132.462C48.6805 139.017 39.9779 140.736 31.9331 140.736H10.9802C9.86728 140.736 8.84125 140.269 8.24756 139.299C7.5794 138.207 7.80488 137.426 8.06759 136.366L8.88262 132.072C9.37495 129.062 9.66455 126.061 9.99553 123.031L10.1962 119.896C10.2251 117.67 10.3617 115.45 10.3617 113.222C10.3617 106.13 9.71627 98.4714 8.33444 91.5133C8.02208 89.9388 7.296 88.4444 8.51855 86.9726C8.62404 86.8452 8.73575 86.7301 8.8578 86.6273C8.77919 86.5533 8.70265 86.4711 8.63232 86.3847C8.09862 85.7454 7.90003 84.9808 8.05311 84.1647L9.23842 77.8994C9.71213 75.0936 10.0224 72.2055 10.2707 69.3729C10.5065 66.674 10.7009 63.8969 10.6906 61.1877C10.6864 60.0304 10.823 58.8917 10.825 57.7385L10.6968 52.2974C10.6968 52.2769 10.6968 52.2584 10.6968 52.2378C10.6968 51.6808 10.5582 51.1299 10.5541 50.5358C10.5251 47.6396 10.1403 44.4781 9.78246 41.6003C9.4308 38.7781 9.0357 35.7173 8.37581 32.9526C8.22687 32.3339 8.06966 31.7542 8.01587 31.1129C7.95175 30.3338 8.1917 29.6391 8.72334 29.0635C9.25704 28.4879 9.93347 28.194 10.7195 28.194H24.4117C30.7333 28.194 38.3416 27.7007 44.413 29.4541C50.8195 31.302 56.2558 35.2219 56.2558 42.4986C56.2558 46.5254 53.61 49.9562 50.5899 52.3776C50.0375 52.8196 49.477 53.2327 48.904 53.6171C50.6395 54.3304 52.2696 55.2019 53.6307 56.1393C55.6807 57.5514 57.3521 59.1445 58.7795 61.1877C59.1415 61.7037 59.4621 62.2278 59.7414 62.752C59.7993 60.7889 59.8221 58.8362 59.8221 56.9081C59.8221 52.429 59.6111 47.9232 59.1436 43.4668C58.9264 41.3948 58.674 39.3187 58.3265 37.2652C58.1568 36.2662 58.0079 35.2692 57.8072 34.2764C57.7142 33.8118 57.6004 33.3514 57.5011 32.8868C57.3708 32.2804 57.2011 31.746 57.1494 31.1149C57.0832 30.3359 57.3232 29.6411 57.8569 29.0656C58.3906 28.49 59.067 28.1961 59.8531 28.1961H75.8289C76.4785 28.1961 77.0763 28.4242 77.5459 28.8045C77.5542 28.3071 77.55 27.8137 77.5542 27.3964C77.5666 26.3831 77.5707 25.3697 77.5707 24.3563L77.0349 15.4475C76.8653 13.5194 76.524 11.4392 76.1392 9.54394C75.8517 8.12355 75.3387 6.9005 76.5178 5.58905C77.0929 4.94978 77.8996 4.62089 78.754 4.62089H94.9408C97.8162 4.62089 100.619 5.0875 103.267 6.22422C104.419 6.71755 105.462 7.39178 106.488 8.103C107.456 8.77105 108.356 9.65494 109.154 10.5121C109.946 11.3611 110.706 12.4916 111.31 13.4844C112.694 15.7599 113.614 18.4589 114.065 21.1784C115.583 19.0509 117.6 17.2811 119.981 16.1505C124.431 14.0415 130.444 14.0004 134.683 16.6418C135.417 17.0981 136.046 17.6305 136.574 18.2184C136.41 16.1238 136.176 14.0312 135.879 11.8873L135.14 7.79055C134.993 6.97655 135.196 6.22011 135.73 5.58494C136.263 4.95183 136.979 4.61883 137.811 4.61883H148.42C149.26 4.61883 149.984 4.958 150.516 5.60344C151.05 6.24683 151.244 7.01767 151.083 7.83783L150.388 11.3364C150.166 12.6704 149.986 14.0251 149.844 15.3879C150.011 15.3879 150.191 15.3899 150.388 15.3817C151.325 15.3447 152.996 14.9398 153.873 14.5944C154.732 14.2553 155.785 13.7763 156.478 13.1597C156.668 12.9891 156.877 12.8246 157.063 12.6499C157.073 12.6376 157.084 12.6252 157.094 12.6129C158.503 11.0034 158.118 10.9993 158.991 9.19039C159.452 8.2325 160.369 7.659 161.436 7.659H162.64C163.482 7.659 164.206 8.00022 164.74 8.64567C165.273 9.29317 165.468 10.064 165.3 10.8842L164.543 14.6438C164.504 14.8884 164.46 15.1309 164.419 15.3776H165.158C166.575 15.3776 167.743 16.4486 167.861 17.8463C167.905 18.2739 168.041 18.6932 168.081 19.1537C168.085 19.2071 168.089 19.2585 168.089 19.3099C169.154 18.0827 170.633 17.1228 171.992 16.391C178.167 13.061 187.283 13.9552 190.701 20.7447C192.511 24.3419 191.799 26.9812 191.379 30.6709C190.988 34.0996 191.083 35.816 192.256 39.0884C192.36 39.3783 192.461 39.664 192.589 39.9415C192.738 40.2539 192.875 40.5787 193.034 40.8829C193.334 41.4626 193.557 41.7648 193.721 42.4637C193.915 43.2921 193.737 44.0855 193.204 44.7515C192.67 45.4175 191.934 45.7711 191.079 45.7711H187.583C188.326 46.2274 189.011 46.7557 189.613 47.3579C193.394 51.1258 192.132 57.0561 187.776 59.7529C187.043 60.2052 186.264 60.5896 185.453 60.8938C187.048 61.79 188.52 62.8219 189.675 63.9689C194.242 68.5076 194.925 75.7205 191.251 81.0053C191.197 81.0814 191.15 81.1451 191.088 81.215L189.424 83.1657C189.346 83.2541 189.275 83.3281 189.189 83.4083C185.571 86.7095 180.453 88.2224 175.559 88.5102H189.691C190.521 88.5102 191.232 88.8391 191.766 89.4681C192.3 90.0971 192.507 90.8515 192.366 91.6613L191.342 97.5854C190.994 99.5958 190.802 101.799 190.595 103.834C190.401 105.719 190.132 107.886 190.13 109.773C190.128 111.981 189.971 114.178 189.96 116.384C189.954 117.485 190.144 118.56 190.138 119.681C190.119 122.885 190.401 125.962 190.666 129.149C190.939 132.431 191.518 136.004 192.316 139.202C192.56 140.183 192.668 140.978 192.089 141.93C191.491 142.913 190.463 143.365 189.344 143.365H175.55C174.7 143.365 173.9 143.106 173.304 142.551L173.308 142.561Z" fill="black"/>
<path fill-rule="evenodd" clip-rule="evenodd" d="M10.7216 84.6663H34.7526C40.0731 84.6663 45.3687 83.8399 49.7004 81.6446C57.0357 77.9241 61.4439 69.7286 56.5557 62.7294C55.2898 60.9164 53.8583 59.5762 52.0917 58.3593C49.3487 56.4702 44.6716 54.5092 40.795 54.5092L43.0208 53.6521C43.7986 53.3273 44.4047 53.0457 45.135 52.6859C46.552 51.9871 47.7187 51.2224 48.8895 50.2809C50.8547 48.7064 53.5459 45.9006 53.5459 42.5007C53.5459 36.3381 48.5771 33.4644 43.66 32.0461C38.1451 30.4551 30.27 30.8929 24.4158 30.8929H10.7216C10.7609 31.3554 10.9078 31.8755 11.0174 32.3339C12.0104 36.4882 13.2267 46.4473 13.2681 50.5112C13.2763 51.2676 13.4108 51.4341 13.4129 52.2358L13.5432 57.7118C13.5432 59.0602 13.4046 59.9112 13.4087 61.1795C13.4274 65.9566 12.6806 73.8479 11.9152 78.3742L10.7258 84.6642L10.7216 84.6663ZM25.2205 54.5113C25.2205 47.9109 25.4563 41.1522 29.8769 35.9229C37.7252 26.6441 45.6914 41.0494 40.4454 48.5625C37.9197 52.1803 32.8061 53.7672 28.5551 54.2235C27.5042 54.3366 26.2527 54.5133 25.2226 54.5133L25.2205 54.5113ZM33.8114 82.5306C31.0209 82.5306 28.553 82.4052 26.7533 79.6713C25.7252 78.1111 25.2184 75.6013 25.2184 73.0565V56.3777C26.2341 56.3777 26.743 56.2441 27.6345 56.2441C33.0853 56.2441 39.9552 57.9276 43.2298 62.3614C46.2748 66.4849 45.2218 71.4367 42.7292 75.517C40.8902 78.5304 37.7356 82.5306 33.8093 82.5306H33.8114Z" fill="white"/>
<path fill-rule="evenodd" clip-rule="evenodd" d="M103.486 75.5931C103.486 74.9127 103.486 75.3731 103.621 75.1922C103.621 75.8973 103.621 75.3916 103.486 75.5931C103.486 76.3762 103.286 77.147 103.141 77.9179L101.742 84.6663H117.718C116.715 80.3846 116.121 77.9898 115.492 73.5354C115.372 72.6906 115.343 71.9835 115.223 71.1325C114.766 67.9238 115.029 61.7879 115.476 58.4189C116.034 54.1886 116.781 51.1731 117.718 47.1709H101.742L102.355 52.0323C103.416 59.6543 103.565 69.5662 100.687 76.6784C97.661 84.1606 90.4519 84.7259 90.4602 75.9877C90.4664 69.7121 94.496 59.2021 94.4919 52.2399C94.4919 50.542 94.4919 48.2788 93.9561 47.1688H77.9803L79.4945 50.468C80.0013 51.6356 80.3675 52.7209 80.7419 54.0303C83.9461 65.2844 78.6691 72.7502 80.7171 79.9405C81.0894 81.2479 81.5879 82.216 82.3761 83.0958C86.0789 87.2378 92.9322 86.1792 97.1335 83.955C99.531 82.6827 101.697 79.9323 102.76 77.404L103.343 75.85C103.472 75.5745 103.389 75.7328 103.486 75.591V75.5931Z" fill="white"/>
<path fill-rule="evenodd" clip-rule="evenodd" d="M158.259 56.7806C158.259 59.8085 159.459 62.1785 161.581 64.2854C166.736 69.4017 174.139 70.1787 177.757 74.2261C181.309 78.1995 178.49 83.8667 173.293 83.8667C171.576 83.8667 170.099 82.8101 169.109 82.0208C167.45 80.6991 166.335 77.6363 167.892 75.1635C168.391 74.37 169.071 74.0103 169.533 73.3258C167.71 72.3658 165.364 69.856 161.211 69.856C158.598 69.856 156.244 71.6957 156.244 74.259C156.244 76.8223 156.879 78.1831 158.37 80.0166C164.043 86.9911 180.076 88.0785 187.358 81.4329L189.021 79.4842C191.95 75.2703 191.429 69.5333 187.759 65.8867C185.391 63.5311 181.148 61.6235 177.84 60.532C176.578 60.1168 175.304 59.6337 174.082 59.1979C172.067 58.4826 168.594 57.1773 168.594 54.5113C168.594 52.7517 169.324 51.2101 170.437 50.0733C172.145 48.3261 172.768 47.841 174.903 47.841C176.599 47.841 178.26 48.7002 178.26 50.5091C178.26 52.0302 175.575 52.4948 175.575 55.4466C175.575 58.8958 181.566 60.4333 186.342 57.4754C189.228 55.6912 190.227 51.8 187.693 49.2717C182.259 43.8532 165.443 44.9283 160.191 51.6294C159.204 52.8874 158.257 54.6141 158.257 56.7806H158.259Z" fill="white"/>
<path fill-rule="evenodd" clip-rule="evenodd" d="M138.793 85.8667C144.215 85.8667 149.031 83.6282 151.79 79.5706C153.507 77.0504 154.643 73.5663 152.121 71.151C149.964 69.0852 146.269 69.9177 143.981 71.0092C142.498 71.7163 141.526 72.4871 140.268 73.3237C140.647 73.8828 141.195 74.2343 141.631 74.7708C143.7 77.3012 146.548 84.8842 139.919 83.6755C135.527 82.8759 133.162 77.8768 132.358 73.8479C132.201 73.0627 131.944 71.6423 131.944 70.7892C138.067 70.7892 147.117 67.3955 151.308 62.6821C156.254 57.1157 154.833 49.2655 146.224 46.7228C140.562 45.0516 133.584 46.139 128.99 49.5738C125.968 51.8329 124.1 54.1146 122.455 57.6234C119.232 64.4992 119.787 74.1439 125.198 79.8933C126.305 81.0691 126.156 80.9868 127.689 82.2222C130.428 84.4319 134.888 85.8647 138.791 85.8647L138.793 85.8667ZM131.948 68.9228C131.948 63.9134 132.445 59.2349 134.232 55.315C134.977 53.6808 135.756 52.1988 136.834 50.8298C137.658 49.7856 137.72 49.8575 138.557 49.0743C139.685 48.0219 140.5 47.841 141.747 47.841C143.379 47.841 144.029 50.3817 144.029 52.1104C144.029 55.9625 142.693 60.1805 140.647 63.159C138.781 65.8785 135.44 68.8447 131.946 68.9207L131.948 68.9228Z" fill="white"/>
<path fill-rule="evenodd" clip-rule="evenodd" d="M62.5402 56.9142C62.5402 65.0049 62.0913 73.8479 60.4944 81.6981L59.8552 84.6663H75.831C75.8207 84.175 75.6655 83.62 75.5642 83.1986C74.8443 80.2119 74.0727 74.8428 73.8307 71.9794C73.6631 69.9855 72.8088 56.8669 73.1853 54.1474C73.3301 53.1012 73.1646 51.6643 73.3197 50.5461L73.8245 43.7093C73.9755 40.9837 74.9581 35.3206 75.5538 32.486C75.6779 31.9043 75.8331 31.5507 75.8331 30.895H59.8572C59.8965 31.3616 60.0475 31.8097 60.1592 32.3298C60.2482 32.7429 60.364 33.2157 60.4716 33.7522C60.6867 34.8211 60.8212 35.7256 61.0074 36.8232C61.3611 38.9076 61.628 41.0967 61.8472 43.1934C62.3023 47.5244 62.5402 52.2234 62.5402 56.9142Z" fill="white"/>
<path fill-rule="evenodd" clip-rule="evenodd" d="M25.0446 54.5503C25.0446 47.9479 25.2784 41.1892 29.7011 35.9619C37.5494 26.6832 45.5156 41.0885 40.2675 48.5995C37.7418 52.2173 32.6282 53.8042 28.3772 54.2584C27.3263 54.3715 26.0748 54.5483 25.0446 54.5483V54.5503ZM25.0446 66.637V56.4168C26.0603 56.4168 26.5692 56.2832 27.4608 56.2832C32.9095 56.2832 39.7814 57.9667 43.0539 62.4005C43.5194 63.0315 43.8876 63.6791 44.171 64.3409C48.544 64.1374 52.915 64.1354 57.288 64.2875C57.0315 63.7757 56.7295 63.2679 56.3799 62.7664C55.1139 60.9534 53.6824 59.6132 51.9158 58.3963C49.1729 56.5072 44.4958 54.5483 40.6171 54.5483L42.8429 53.6911C43.6228 53.3643 44.2268 53.0847 44.9591 52.725C46.3761 52.0282 47.5428 51.2614 48.7136 50.32C50.6768 48.7454 53.3701 45.9396 53.3701 42.5397C53.3701 36.3751 48.3992 33.5035 43.4821 32.0831C37.9672 30.4921 30.092 30.9299 24.2379 30.9299H10.5458C10.583 31.3924 10.7299 31.9125 10.8395 32.3709C11.8325 36.5252 13.0488 46.4843 13.0902 50.5502C13.0984 51.3067 13.2329 51.4711 13.235 52.2748L13.3653 57.7488C13.3653 59.0972 13.2246 59.9482 13.2308 61.2185C13.2391 63.5907 13.0612 66.7295 12.784 69.8437C16.8716 68.524 20.9571 67.4572 25.0446 66.6349V66.637Z" fill="white"/>
<path fill-rule="evenodd" clip-rule="evenodd" d="M91.4966 67.893C92.6839 62.5896 94.3181 56.7148 94.3161 52.281C94.3161 50.5831 94.3161 48.3199 93.7803 47.2099H77.8044L79.3166 50.5091C79.8255 51.6767 80.1916 52.762 80.564 54.0714C81.9003 58.7642 81.7617 62.7993 81.2942 66.4294C84.695 66.8775 88.0937 67.3729 91.4945 67.893H91.4966ZM115.108 71.6464C115.089 71.4922 115.07 71.336 115.048 71.1716C114.59 67.9628 114.853 61.825 115.298 58.4579C115.859 54.2276 116.603 51.2121 117.54 47.2099H101.564L102.177 52.0713C102.915 57.3808 103.213 63.8003 102.353 69.6114C106.604 70.3 110.855 70.9886 115.106 71.6443L115.108 71.6464Z" fill="white"/>
<path fill-rule="evenodd" clip-rule="evenodd" d="M167.803 75.0751C168.292 74.368 168.925 74.0123 169.361 73.3628C167.539 72.4028 165.193 69.8951 161.039 69.8951C158.424 69.8951 156.072 71.7327 156.072 74.2981C156.072 74.7318 156.091 75.1347 156.134 75.5149C160.025 75.5211 163.914 75.3793 167.805 75.0771L167.803 75.0751ZM158.085 56.8176C158.085 59.8475 159.285 62.2155 161.407 64.3225C166.438 69.3133 173.608 70.1787 177.315 73.9774C181.702 73.2991 186.09 72.3679 190.477 71.151C190.045 69.225 189.075 67.4037 187.588 65.9237C185.219 63.5701 180.974 61.6605 177.669 60.5711C176.405 60.1538 175.132 59.6707 173.91 59.237C171.895 58.5196 168.422 57.2143 168.422 54.5503C168.422 52.7887 169.152 51.2491 170.263 50.1103C171.972 48.3631 172.594 47.878 174.729 47.878C176.425 47.878 178.086 48.7393 178.086 50.5482C178.086 52.0693 175.401 52.5338 175.401 55.4836C175.401 58.9348 181.392 60.4703 186.168 57.5124C189.054 55.7282 190.053 51.837 187.519 49.3087C182.085 43.8902 165.269 44.9653 160.017 51.6684C159.03 52.9264 158.083 54.6531 158.083 56.8176H158.085Z" fill="white"/>
<path fill-rule="evenodd" clip-rule="evenodd" d="M132.207 73.9918L132.184 73.8869C132.029 73.1017 131.77 71.6834 131.77 70.8283C137.893 70.8283 146.944 67.4366 151.135 62.7212C156.083 57.1547 154.659 49.3046 146.05 46.7618C140.388 45.0907 133.411 46.1801 128.816 49.6129C125.794 51.8719 123.926 54.1557 122.282 57.6624C120.217 62.0675 119.704 67.6072 121.022 72.5323C124.749 73.0709 128.477 73.5642 132.205 73.9918H132.207ZM153.352 75.4882C153.571 73.9568 153.242 72.4337 151.947 71.1901C149.79 69.1242 146.095 69.9567 143.808 71.0482C142.324 71.7553 141.352 72.5262 140.094 73.3628C140.473 73.9239 141.021 74.2734 141.458 74.8099C141.48 74.8387 141.503 74.8674 141.526 74.8983C145.469 75.2066 149.409 75.4163 153.35 75.4882H153.352ZM131.77 68.9598C131.77 63.9504 132.267 59.2719 134.056 55.352C134.801 53.7178 135.581 52.2378 136.658 50.8688C137.482 49.8246 137.544 49.8966 138.382 49.1113C139.509 48.0568 140.324 47.878 141.571 47.878C143.201 47.878 143.853 50.4207 143.853 52.1474C143.853 55.9995 142.517 60.2196 140.471 63.1981C138.603 65.9176 135.264 68.8837 131.768 68.9598H131.77Z" fill="white"/>
<path fill-rule="evenodd" clip-rule="evenodd" d="M62.3644 56.9512C62.3644 59.4241 62.3209 61.9647 62.2196 64.528C65.8913 64.75 69.5631 65.0686 73.2349 65.4633C72.9949 61.0336 72.786 55.7939 73.0074 54.1865C73.1522 53.1402 72.9887 51.7013 73.1418 50.5831L73.6466 43.7463C73.7976 41.0207 74.7781 35.3576 75.3759 32.523C75.5 31.9392 75.6552 31.5877 75.6552 30.932H59.6793C59.7186 31.3986 59.8696 31.8447 59.9813 32.3668C60.0703 32.782 60.1861 33.2527 60.2937 33.7892C60.5088 34.8602 60.6433 35.7646 60.8295 36.8602C61.1811 38.9446 61.45 41.1337 61.6693 43.2304C62.1244 47.5614 62.3623 52.2604 62.3623 56.9512H62.3644Z" fill="white"/>
<path fill-rule="evenodd" clip-rule="evenodd" d="M80.2867 24.2802C80.2867 25.5834 80.2867 29.7336 80.1316 30.7573L79.7427 35.1541C79.5979 36.8356 79.1532 39.6373 78.8015 41.3927C78.5967 42.4164 78.2243 43.0865 78.756 43.0865H94.9428C99.4793 43.0865 102.955 41.7874 106.016 38.9816L107.11 37.8962C109.998 35.0739 111.676 29.1992 111.676 25.0408C111.676 21.4312 110.683 17.6696 108.989 14.8843C108.542 14.1484 107.762 12.9891 107.164 12.3477C106.537 11.6756 105.708 10.8492 104.94 10.3189C104.096 9.73511 103.17 9.12255 102.191 8.70117C100.162 7.83167 97.8037 7.31983 94.9408 7.31983H78.7539C78.2595 7.31983 78.5595 7.83783 78.7994 9.01566C79.1511 10.7547 79.5958 13.5811 79.7406 15.2543L80.2847 24.2802H80.2867ZM91.9889 41.6723C89.3576 41.6723 88.1599 38.9055 88.1599 36.2374V23.0839C88.1599 19.7539 89.159 16.0457 90.2947 13.7907C91.2028 11.9839 92.4936 10.2531 94.3388 9.33222C96.2357 8.38667 98.5588 8.61894 100.001 9.90161C100.944 10.7423 101.312 11.3919 101.906 12.5738C103.066 14.8802 103.364 18.0149 103.364 21.127C103.364 27.9391 100.857 37.1973 95.0463 40.6897C94.2519 41.1666 93.2383 41.6723 91.9889 41.6723Z" fill="#679EC0"/>
<path fill-rule="evenodd" clip-rule="evenodd" d="M169.318 22.9749C169.318 26.0542 175.24 26.751 177.313 23.2011C178.788 20.6727 177.366 18.6274 179.927 18.6274C182.488 18.6274 184.555 23.7931 182.443 27.7582C180.467 26.4447 179.137 26.0192 176.647 26.0192C173.786 26.0192 170.726 27.5897 169.291 29.0368C168.318 30.0132 167.721 30.6134 167.057 31.9248C165.718 34.5662 165.594 38.1223 167.135 40.8007L168.225 42.1081L169.719 43.1235C173.19 44.8419 177.362 43.6292 179.708 40.1491C179.774 40.0504 179.752 40.0792 179.843 39.9559C179.936 39.8326 179.958 39.8058 180.039 39.7154C180.039 40.9241 180.091 42.2889 180.478 43.0865H191.088C190.99 42.6713 190.815 42.4842 190.628 42.1286C190.471 41.8223 190.312 41.4606 190.138 41.0926C189.96 40.7144 189.853 40.4122 189.706 40.0011C188.367 36.2682 188.252 34.2127 188.688 30.3749C188.994 27.6822 189.793 24.9627 188.28 21.9574C185.509 16.4527 177.935 16.2656 173.293 18.7693C171.856 19.5442 169.32 21.1023 169.32 22.9729L169.318 22.9749ZM176.756 40.478C172.598 40.478 173.947 32.0934 176.564 29.526C177.278 28.823 177.981 28.0152 179.317 27.9391C183.322 27.7151 180.318 36.9075 178.945 38.8479C178.703 39.1892 178.428 39.5777 178.088 39.8469C177.832 40.0504 177.16 40.48 176.756 40.48V40.478Z" fill="#679EC0"/>
<path fill-rule="evenodd" clip-rule="evenodd" d="M113.645 30.6936C113.645 33.9783 114.053 36.0627 115.832 38.739C116.254 39.3721 116.68 39.8531 117.226 40.3958C118.196 41.3619 119.365 42.2088 120.72 42.7926C128.293 46.0424 135.628 41.255 135.628 36.2394C135.628 33.3822 132.374 32.4202 129.209 33.9907L127.379 35.1068C127.097 35.3227 127.081 35.3967 126.768 35.4789V35.6968C127.234 35.8201 127.476 36.2292 127.739 36.5807C128.624 37.7564 129.284 39.1666 129.284 40.8069C129.284 43.2859 125.494 42.8481 123.62 40.5643C122.271 38.9199 121.299 36.3669 121.299 33.8488C121.967 33.8488 123.343 33.6494 123.934 33.5343C127.676 32.7943 131.592 31.2691 134.122 28.4407C136.739 25.5136 136.675 21.0715 133.243 18.9337C129.815 16.798 124.78 16.872 121.15 18.5904C118.281 19.9512 116.061 22.4631 114.814 25.3368C114.214 26.7161 113.643 28.7737 113.643 30.6956L113.645 30.6936ZM121.193 32.5415C121.193 28.5989 121.764 25.5444 123.417 22.2493C124.315 20.4569 127.099 17.3263 128.587 18.9954C130.914 21.6101 127.406 32.5394 121.193 32.5394V32.5415Z" fill="#679EC0"/>
<path fill-rule="evenodd" clip-rule="evenodd" d="M139.567 25.2587C139.567 29.5445 139.246 34.7533 138.551 38.924L137.817 43.0865H148.427L147.723 39.5448C147.508 38.2662 147.37 37.1398 147.204 35.8222C146.273 28.4612 146.507 18.1526 147.723 10.8616L148.427 7.31983H137.817L138.564 11.47C139.236 16.2779 139.567 20.1999 139.567 25.2566V25.2587Z" fill="#679EC0"/>
<path fill-rule="evenodd" clip-rule="evenodd" d="M149.085 19.388C152.125 19.6408 153.021 22.8496 153.021 25.5834C153.021 33.7728 150.942 35.0575 150.942 38.8459C150.942 43.9211 157.274 45.843 162.444 41.6908C163.571 40.7843 165.598 38.4903 165.598 36.5642C165.598 35.5015 165.518 34.6546 164.585 33.8776C162.669 32.2804 159.763 33.4398 157.917 34.5847C157.547 34.8149 157.123 35.2672 156.738 35.3699C157.522 36.5313 158.925 37.0041 158.925 40.2622C158.925 42.9467 155.234 43.5922 153.515 41.2899C152.132 39.4338 152.38 38.1449 153.799 36.2538C154.872 34.8252 156.846 33.6371 158.451 32.8313L160.578 32.0112C160.861 31.931 161.217 31.8899 161.442 31.783C161.442 30.9156 161.246 29.7028 161.145 28.9258C160.884 26.9524 161.016 22.1589 161.101 19.9204C161.12 19.462 161.097 19.425 161.542 19.3798C162.506 19.277 164.32 19.3901 165.381 19.3901C165.346 18.9748 165.197 18.5 165.164 18.0868H161.335C161.335 17.4578 161.475 16.7384 161.558 16.1361C161.651 15.4804 161.773 14.8267 161.881 14.1731L162.648 10.3682H161.444C160.634 12.0497 161.041 12.2306 159.15 14.393C159.134 14.4094 159.115 14.4362 159.101 14.4526C159.078 14.4752 159.018 14.541 158.993 14.5636C158.776 14.7753 158.532 14.9686 158.298 15.1782C157.351 16.0231 156.076 16.6397 154.883 17.1104C153.764 17.5524 151.693 18.0396 150.506 18.0868C149.227 18.1403 149.471 17.7394 149.085 19.3921V19.388Z" fill="#679EC0"/>
<path fill-rule="evenodd" clip-rule="evenodd" d="M88.2054 21.5052C88.4578 18.6562 89.3142 15.7497 90.2637 13.8606C91.1718 12.0558 92.4626 10.323 94.3078 9.40211C96.2047 8.45656 98.5257 8.68883 99.9675 9.97355C100.913 10.8143 101.279 11.4638 101.875 12.6437C103.006 14.8904 103.315 17.9203 103.331 20.9523C106.014 21.1373 108.699 21.4456 111.384 21.8526C110.985 19.3325 110.143 16.9028 108.958 14.9521C108.511 14.2162 107.731 13.0569 107.133 12.4176C106.506 11.7434 105.675 10.9191 104.907 10.3888C104.063 9.80705 103.139 9.19244 102.16 8.77311C100.129 7.90156 97.7727 7.39178 94.9098 7.39178H78.7229C78.2285 7.39178 78.5285 7.90978 78.7684 9.08556C79.1201 10.8246 79.5649 13.653 79.7097 15.3242L80.1937 23.3696C82.8622 22.533 85.5349 21.9246 88.2034 21.5052H88.2054Z" fill="#679EC0"/>
<path fill-rule="evenodd" clip-rule="evenodd" d="M175.172 31.6679C175.554 30.8251 176.018 30.0974 176.533 29.5959C177.247 28.8949 177.95 28.0851 179.286 28.009C180.72 27.9288 181.255 29.0553 181.289 30.6257C183.843 30.044 186.398 29.2691 188.953 28.2762C189.224 26.2803 189.356 24.2329 188.245 22.0314C185.475 16.5267 177.902 16.3396 173.26 18.8433C171.823 19.6182 169.287 21.1763 169.287 23.0469C169.287 26.1261 175.209 26.8209 177.282 23.273C178.757 20.7447 177.335 18.6973 179.896 18.6973C182.457 18.6973 184.524 23.8629 182.412 27.8281C180.438 26.5146 179.108 26.0891 176.614 26.0891C173.755 26.0891 170.695 27.6596 169.258 29.1046C168.285 30.081 167.687 30.6812 167.023 31.9927L166.976 32.0872C169.706 32.1139 172.439 31.9844 175.17 31.6658L175.172 31.6679Z" fill="#679EC0"/>
<path fill-rule="evenodd" clip-rule="evenodd" d="M122.625 24.0068C122.848 23.4498 123.101 22.8886 123.384 22.3213C124.282 20.5288 127.066 17.3982 128.554 19.0694C129.538 20.1753 129.476 22.7735 128.607 25.4005C130.788 25.9267 132.966 26.4612 135.146 26.9915C136.6 24.2103 136.094 20.7961 133.214 19.0036C129.784 16.8679 124.752 16.9419 121.121 18.6624C119.201 19.573 117.571 20.9996 116.33 22.7057C118.428 23.1024 120.525 23.5423 122.623 24.0089L122.625 24.0068Z" fill="#679EC0"/>
<path fill-rule="evenodd" clip-rule="evenodd" d="M139.536 25.3286C139.536 26.1981 139.523 27.1025 139.496 28.0316C141.89 28.5948 144.285 29.1334 146.679 29.6247C146.433 23.3511 146.795 16.3191 147.692 10.9335L148.396 7.39383H137.786L138.533 11.5419C139.205 16.3519 139.536 20.2719 139.536 25.3286Z" fill="#679EC0"/>
<path fill-rule="evenodd" clip-rule="evenodd" d="M149.051 19.4599C152.094 19.7128 152.99 22.9194 152.99 25.6554C152.99 27.75 152.853 29.3924 152.651 30.7408C155.572 31.2239 158.49 31.6021 161.411 31.8364C161.409 30.9711 161.215 29.7665 161.111 28.9957C160.851 27.0223 160.983 22.2267 161.068 19.9903C161.084 19.5298 161.064 19.4949 161.506 19.4476C162.472 19.3448 164.287 19.4599 165.346 19.4599C165.311 19.0447 165.162 18.5699 165.129 18.1547H161.3C161.3 17.5257 161.44 16.8062 161.523 16.2039C161.614 15.5503 161.736 14.8966 161.846 14.2409L162.613 10.4361H161.411C160.598 12.1175 161.008 12.2984 159.115 14.4588C159.101 14.4773 159.08 14.5019 159.066 14.5184C159.043 14.541 158.981 14.6088 158.958 14.6314C158.741 14.8411 158.497 15.0364 158.263 15.244C157.315 16.0888 156.039 16.7055 154.848 17.1762C153.726 17.6182 151.658 18.1033 150.47 18.1526C149.192 18.204 149.436 17.8032 149.047 19.4579L149.051 19.4599Z" fill="#679EC0"/>
<path fill-rule="evenodd" clip-rule="evenodd" d="M13.0757 113.224C13.0757 115.674 12.9371 117.602 12.9081 119.999L12.7012 123.263C12.3372 126.575 12.1158 129.124 11.5573 132.54L10.7216 136.937C10.5602 137.595 10.283 138.043 10.9822 138.043H31.9352C39.2828 138.043 47.1994 136.553 51.8662 130.779C53.8996 128.263 54.4623 126.147 54.4623 122.772C54.4623 119.397 51.3801 115.966 48.875 114.094C46.1796 112.079 41.8314 110.276 38.2237 110.276L39.3366 109.82C39.8517 109.645 40.0089 109.573 40.4723 109.386C42.3444 108.628 44.9943 107.125 46.3885 105.721C47.6876 104.416 48.362 103.806 49.1956 102.091C49.9134 100.613 50.0293 98.603 49.5059 96.8085C48.5481 93.5237 46.0658 91.6285 43.0167 90.4157C39.8786 89.168 36.2482 88.5821 31.9393 88.5821H10.9802C10.192 88.5821 10.6409 89.2132 10.9967 90.9953C12.3661 97.8815 13.0757 106.151 13.0757 113.226V113.224ZM23.9028 110.272C23.9028 105.429 23.9565 100.574 25.9962 96.5618C27.6387 93.3346 30.9546 88.8863 35.0732 91.0138C39.8993 93.5093 43.8421 107.08 28.5985 109.732C27.3263 109.954 25.2598 110.272 23.9048 110.272H23.9028ZM23.9028 127.975V112.009C28.6543 112.009 33.1722 112.055 37.2473 114.714C44.0096 119.126 42.9153 125.944 38.5009 131.724C35.7828 135.286 31.087 137.593 26.834 134.955C24.906 133.761 23.9048 131.054 23.9048 127.975H23.9028Z" fill="#F68D21"/>
<path fill-rule="evenodd" clip-rule="evenodd" d="M91.9786 95.9965C91.9786 101.082 101.784 101.382 103.745 94.6727C104.291 92.8001 103.722 90.0929 106.297 90.0929C109.185 90.0929 111.188 93.8608 111.188 96.8619C111.188 101.415 110.782 100.027 110.141 102.761C105.946 99.9699 101.775 99.6472 97.0218 101.351C92.9032 102.827 89.2894 106.231 87.9799 110.414C86.5009 115.134 87.3821 120.55 91.4552 123.418C94.8187 125.786 99.7213 125.412 103.195 123.107C105.1 121.845 105.627 120.595 106.649 119.424C106.649 120.879 106.889 122.984 107.348 123.936H122.017C121.711 122.797 118.349 117.81 118.349 110.92C118.349 109.144 118.529 107.427 118.773 105.789C119.392 101.623 119.892 99.7705 118.461 95.5381C117.851 93.7354 117.048 92.8906 115.861 91.7004C112.22 88.0518 105.844 87.4228 100.925 88.9172C98.1616 89.7558 91.9827 92.5637 91.9827 95.9965H91.9786ZM101.931 120.291C99.3614 120.291 98.4367 117.107 98.4367 114.912C98.4367 111.452 99.9882 106.745 102.584 104.455C106.405 101.084 108.883 103.902 108.525 106.874C108.12 110.252 106.463 120.291 101.929 120.291H101.931Z" fill="#F68D21"/>
<path fill-rule="evenodd" clip-rule="evenodd" d="M124.114 98.1343C124.114 101.61 124.704 103.32 127.3 105.9C130.415 108.996 135.254 110.486 139.474 112.893C140.543 113.504 141.213 114.116 142.06 115.01C146.592 119.806 139.374 126.9 134.108 122.047C131.99 120.094 131.543 116.86 133.715 114.79C134.056 114.466 134.269 114.48 134.418 113.927C133.895 113.787 133.502 113.38 132.813 112.92C121.462 105.368 116.442 120.108 131.909 124.754C138.303 126.674 148.83 125.518 152.572 119.3C152.996 118.595 153.369 117.952 153.652 117.076C154.395 114.772 154.229 112.542 153.356 110.379C152.729 108.829 151.484 107.364 150.262 106.34C149.837 105.984 149.306 105.676 148.809 105.351C146.803 104.046 144.529 103.17 142.25 102.323C138.681 101 133.545 100.044 133.545 96.3973C133.545 94.1485 136.439 90.6705 138.609 90.6705C139.648 90.6705 140.614 90.6993 141.511 91.2584C143.892 92.7343 141.143 94.8372 141.102 94.8865C139.672 96.5577 139.461 98.7509 141.429 100.017C145.237 102.465 152.403 99.6348 152.403 95.5319C152.403 92.6665 151.184 91.3941 148.387 90.1525C144.267 88.321 138.797 88.5328 134.399 89.4393C132.6 89.8113 131.239 90.3478 129.762 91.0775C128.02 91.9368 127.434 92.4486 126.164 93.7498C125.38 94.5514 124.116 96.6666 124.116 98.1363L124.114 98.1343Z" fill="#F68D21"/>
<path fill-rule="evenodd" clip-rule="evenodd" d="M68.504 108.361H68.3302C68.3302 101.789 68.626 99.7438 69.7989 93.8546L70.7753 89.4434H56.1068C56.1316 90.5719 58.5519 98.5125 58.5519 106.798C58.5519 109.954 58.1175 113.031 57.7286 115.701L56.1068 123.981H70.7753C70.7588 123.231 70.2416 121.79 70.0616 120.178C69.3397 113.804 69.6686 107.847 71.2283 101.695C71.8406 99.271 73.5059 94.2822 75.6655 93.7827C76.3792 95.1208 75.6655 94.7878 75.6655 96.9071C75.6655 98.5289 77.1425 99.493 78.4292 99.8897C80.9942 100.679 85.2266 99.4889 87.0635 97.6471C88.9853 95.719 89.1114 95.0838 89.1114 92.7426C89.1114 87.5214 77.4341 85.2377 72.1158 94.7673C70.0823 98.4118 68.506 103.896 68.506 108.361H68.504Z" fill="#F68D21"/>
<path fill-rule="evenodd" clip-rule="evenodd" d="M177.474 113.259C177.474 120.318 177.387 123.305 176.771 130.435C176.547 133.023 175.84 137.19 175.217 139.864C175.091 140.403 174.928 140.68 175.554 140.68H189.348C189.962 140.68 189.819 140.403 189.685 139.864C188.918 136.785 188.231 132.553 187.966 129.385C187.672 125.86 187.41 123.255 187.43 119.679C187.439 118.357 187.246 117.75 187.252 116.386C187.263 114.104 187.418 112.207 187.422 109.783C187.424 107.456 188.378 98.8989 188.673 97.1435L189.697 91.2194H175.029C176.52 97.5813 177.474 105.454 177.474 113.261V113.259Z" fill="#F68D21"/>
<path fill-rule="evenodd" clip-rule="evenodd" d="M159.14 123.498C159.14 130.933 156.695 139.554 156.695 140.68H171.363L170.532 136.995C168.078 125.498 168.478 119.376 170.939 108.153C171.095 107.45 171.312 106.751 171.363 106.143H156.695L158.317 114.422C158.662 116.499 159.14 121.43 159.14 123.498Z" fill="#F68D21"/>
<path fill-rule="evenodd" clip-rule="evenodd" d="M156.345 95.3819C156.345 97.6471 156.798 99.1723 159.225 100.332C162.237 101.771 166.86 100.991 169.721 98.7838C173.395 95.9492 173.37 89.1351 165.253 89.1351C163.174 89.1351 160.685 89.9306 159.417 90.798C158.035 91.7394 156.347 93.5196 156.347 95.3839L156.345 95.3819Z" fill="#F68D21"/>
<path fill-rule="evenodd" clip-rule="evenodd" d="M23.8862 128.012V115.522C20.2289 116.437 16.5696 117.565 12.9143 118.914C12.904 119.28 12.8978 119.652 12.8916 120.036L12.6847 123.302C12.3206 126.614 12.0993 129.161 11.5387 132.577L10.7051 136.974C10.5437 137.632 10.2665 138.08 10.9636 138.08H31.9186C39.2663 138.08 47.1829 136.59 51.8497 130.814C53.8831 128.3 54.4458 126.182 54.4458 122.807C54.4458 119.432 51.3635 116.001 48.8585 114.129C47.9772 113.471 46.9181 112.834 45.768 112.277C42.0486 112.488 38.3313 112.85 34.614 113.399C35.5056 113.75 36.3785 114.192 37.2329 114.749C43.9931 119.163 42.9009 125.979 38.4865 131.759C35.7683 135.321 31.0726 137.628 26.8195 134.992C24.8916 133.798 23.8904 131.089 23.8904 128.01L23.8862 128.012Z" fill="#F68D21"/>
<path fill-rule="evenodd" clip-rule="evenodd" d="M101.916 120.33C99.9737 120.33 98.9704 118.511 98.5981 116.673C94.8291 116.046 91.0601 115.44 87.2911 114.885C87.32 118.246 88.6088 121.465 91.4366 123.457C94.8001 125.825 99.7027 125.451 103.176 123.146C105.081 121.884 105.607 120.634 106.63 119.465C106.63 120.918 106.87 123.025 107.33 123.977H121.996C121.86 123.467 121.109 122.186 120.323 120.306C115.356 119.518 110.387 118.669 105.418 117.824C104.506 119.317 103.356 120.332 101.916 120.332V120.33Z" fill="#F68D21"/>
<path fill-rule="evenodd" clip-rule="evenodd" d="M140.634 122.994C138.83 124.016 136.443 124.08 134.331 122.297C131.193 121.913 128.053 121.479 124.915 121.011C126.483 122.505 128.769 123.853 131.89 124.791C136.396 126.143 142.947 125.971 147.736 123.578C145.369 123.424 143.001 123.226 140.634 122.994Z" fill="#F68D21"/>
<path fill-rule="evenodd" clip-rule="evenodd" d="M58.1982 112.104C58.0513 113.372 57.8775 114.593 57.7121 115.738L56.0903 124.018H70.7567C70.7401 123.27 70.2251 121.827 70.043 120.215C69.7555 117.681 69.6355 115.21 69.6914 112.77C65.8582 112.437 62.0292 112.207 58.1982 112.106V112.104Z" fill="#F68D21"/>
<path fill-rule="evenodd" clip-rule="evenodd" d="M177.298 122.758C177.195 124.994 177.025 127.331 176.754 130.472C176.531 133.06 175.823 137.227 175.201 139.901C175.074 140.442 174.911 140.717 175.536 140.717H189.331C189.946 140.717 189.803 140.442 189.668 139.899C188.903 136.82 188.214 132.587 187.949 129.42C187.689 126.291 187.451 123.888 187.418 120.885C184.044 121.67 180.672 122.289 177.298 122.758Z" fill="#F68D21"/>
<path fill-rule="evenodd" clip-rule="evenodd" d="M159.121 123.971C159.03 131.303 156.68 139.613 156.68 140.717H171.349L170.519 137.03C169.398 131.778 168.873 127.646 168.867 123.638C165.619 123.864 162.371 123.966 159.123 123.969L159.121 123.971Z" fill="#F68D21"/>
</svg>
