<svg width="81" height="81" viewBox="0 0 81 81" fill="none" xmlns="http://www.w3.org/2000/svg">
<g clip-path="url(#clip0_65_5020)">
<path d="M40.5 81C62.8675 81 81 62.8675 81 40.5C81 18.1325 62.8675 0 40.5 0C18.1325 0 0 18.1325 0 40.5C0 62.8675 18.1325 81 40.5 81Z" fill="#2AA81A"/>
<path d="M54.7869 26.2131C51.4168 22.8048 46.9392 20.7138 42.1625 20.3174C37.3858 19.9211 32.6248 21.2456 28.7391 24.0518C24.8534 26.858 22.099 30.9611 20.9732 35.6201C19.8474 40.2791 20.4244 45.1871 22.6001 49.458L20.4685 59.8068C20.4457 59.9102 20.4448 60.0172 20.4659 60.1209C20.487 60.2246 20.5297 60.3227 20.5911 60.409C20.679 60.5395 20.8047 60.6401 20.9514 60.6972C21.098 60.7543 21.2587 60.7653 21.4117 60.7287L31.5367 58.3253C35.7959 60.444 40.6687 60.9825 45.2877 59.8452C49.9067 58.7078 53.9723 55.9683 56.7608 52.1143C59.5493 48.2603 60.8798 43.5418 60.5154 38.7988C60.151 34.0558 58.1154 29.5959 54.7709 26.2131H54.7869ZM51.6215 51.4563C49.2908 53.783 46.2894 55.3206 43.0395 55.853C39.7895 56.3854 36.4544 55.8859 33.5031 54.4246L32.0856 53.7211L25.8667 55.1919V55.112L27.1776 48.8398L26.4849 47.4756C24.9758 44.5163 24.443 41.155 24.9629 37.8741C25.4827 34.5931 27.0285 31.5612 29.3785 29.2133C32.3292 26.2657 36.3293 24.61 40.5 24.61C44.6707 24.61 48.6709 26.2657 51.6215 29.2133L51.6908 29.3092C54.6031 32.2662 56.2289 36.2543 56.2139 40.4046C56.199 44.5549 54.5445 48.5311 51.6109 51.467L51.6215 51.4563Z" fill="white"/>
<path d="M51.0727 46.8947C50.3107 48.0937 49.101 49.5592 47.5929 49.9269C44.9284 50.5664 40.8731 49.9269 35.7946 45.2321L35.7307 45.1735C31.313 41.0489 30.1406 37.6117 30.4017 34.8886C30.5563 33.3379 31.8459 31.9417 32.933 31.0251C33.1058 30.8794 33.3103 30.7761 33.5302 30.7235C33.7501 30.6709 33.9792 30.6705 34.1993 30.7223C34.4194 30.7741 34.6243 30.8766 34.7977 31.0217C34.971 31.1668 35.1081 31.3505 35.1978 31.558L36.8338 35.2563C36.9406 35.4944 36.9806 35.757 36.9496 36.0161C36.9187 36.2751 36.8178 36.5209 36.6579 36.7271L35.8266 37.7929C35.6538 38.0141 35.5509 38.2818 35.5309 38.5618C35.511 38.8419 35.575 39.1214 35.7147 39.3649C36.5043 40.5288 37.4492 41.5794 38.523 42.4877C39.6784 43.5996 40.9887 44.5384 42.4132 45.2747C42.6731 45.3795 42.9584 45.4045 43.2327 45.3467C43.5069 45.2888 43.7578 45.1506 43.9532 44.9497L44.9071 43.9798C45.0886 43.7846 45.3206 43.6435 45.5774 43.572C45.8341 43.5005 46.1057 43.5015 46.3619 43.5748L50.2521 44.6885C50.4725 44.7513 50.6751 44.865 50.8434 45.0205C51.0117 45.1761 51.141 45.3691 51.2209 45.5839C51.3008 45.7987 51.3291 46.0293 51.3033 46.257C51.2776 46.4847 51.1986 46.7032 51.0727 46.8947Z" fill="white"/>
</g>
<defs>
<clipPath id="clip0_65_5020">
<rect width="81" height="81" fill="white"/>
</clipPath>
</defs>
</svg>
